<?xml version="1.0" encoding="UTF-8"?>
<!DOCTYPE svg PUBLIC "-//W3C//DTD SVG 1.1//EN" "http://www.w3.org/Graphics/SVG/1.1/DTD/svg11.dtd">
<svg xmlns="http://www.w3.org/2000/svg" version="1.1" width="512px" height="512px" style="shape-rendering:geometricPrecision; text-rendering:geometricPrecision; image-rendering:optimizeQuality; fill-rule:evenodd; clip-rule:evenodd" xmlns:xlink="http://www.w3.org/1999/xlink">
<g><path style="opacity:0.988" fill="#000000" d="M 55.5,-0.5 C 62.1667,-0.5 68.8333,-0.5 75.5,-0.5C 82.2883,1.56075 88.6216,4.72741 94.5,9C 148.014,62.6803 201.68,116.18 255.5,169.5C 309.32,116.18 362.986,62.6803 416.5,9C 422.601,4.44768 429.268,1.28101 436.5,-0.5C 442.833,-0.5 449.167,-0.5 455.5,-0.5C 462.288,1.56075 468.622,4.72741 474.5,9C 483.667,18.1667 492.833,27.3333 502,36.5C 506.273,42.3784 509.439,48.7117 511.5,55.5C 511.5,62.1667 511.5,68.8333 511.5,75.5C 509.439,82.2883 506.273,88.6216 502,94.5C 448.32,148.014 394.82,201.68 341.5,255.5C 394.82,309.32 448.32,362.986 502,416.5C 506.273,422.378 509.439,428.712 511.5,435.5C 511.5,442.167 511.5,448.833 511.5,455.5C 509.439,462.288 506.273,468.622 502,474.5C 492.833,483.667 483.667,492.833 474.5,502C 468.622,506.273 462.288,509.439 455.5,511.5C 448.833,511.5 442.167,511.5 435.5,511.5C 428.701,509.434 422.368,506.267 416.5,502C 362.986,448.32 309.32,394.82 255.5,341.5C 201.68,394.82 148.014,448.32 94.5,502C 88.6216,506.273 82.2883,509.439 75.5,511.5C 68.8333,511.5 62.1667,511.5 55.5,511.5C 48.7117,509.439 42.3784,506.273 36.5,502C 27.3333,492.833 18.1667,483.667 9,474.5C 4.72741,468.622 1.56075,462.288 -0.5,455.5C -0.5,449.167 -0.5,442.833 -0.5,436.5C 1.28101,429.268 4.44768,422.601 9,416.5C 62.6803,362.986 116.18,309.32 169.5,255.5C 116.18,201.68 62.6803,148.014 9,94.5C 4.73262,88.632 1.56595,82.2986 -0.5,75.5C -0.5,68.8333 -0.5,62.1667 -0.5,55.5C 1.56075,48.7117 4.72741,42.3784 9,36.5C 18.1667,27.3333 27.3333,18.1667 36.5,9C 42.3784,4.72741 48.7117,1.56075 55.5,-0.5 Z"/></g>
</svg>
