<?xml version="1.0" encoding="UTF-8"?>
<!DOCTYPE svg PUBLIC "-//W3C//DTD SVG 1.1//EN" "http://www.w3.org/Graphics/SVG/1.1/DTD/svg11.dtd">
<svg xmlns="http://www.w3.org/2000/svg" version="1.1" width="512px" height="386px" style="shape-rendering:geometricPrecision; text-rendering:geometricPrecision; image-rendering:optimizeQuality; fill-rule:evenodd; clip-rule:evenodd" xmlns:xlink="http://www.w3.org/1999/xlink">
<g><path style="opacity:0.983" fill="#000000" d="M -0.5,203.5 C -0.5,196.167 -0.5,188.833 -0.5,181.5C 9.76935,143.338 34.7694,125.838 74.5,129C 108.281,136.734 125.948,157.9 127.5,192.5C 125.948,227.1 108.281,248.266 74.5,256C 34.7311,259.147 9.7311,241.647 -0.5,203.5 Z"/></g>
<g><path style="opacity:0.983" fill="#000000" d="M 244.5,128.5 C 278.082,125.531 301.915,139.198 316,169.5C 325.656,201.529 317.156,227.362 290.5,247C 272.1,257.265 252.767,259.265 232.5,253C 199.703,237.817 186.537,212.317 193,176.5C 200.746,150.25 217.912,134.25 244.5,128.5 Z"/></g>
<g><path style="opacity:0.983" fill="#000000" d="M 511.5,181.5 C 511.5,188.833 511.5,196.167 511.5,203.5C 501.192,241.676 476.192,259.176 436.5,256C 402.707,248.227 385.04,227.06 383.5,192.5C 385.052,157.9 402.719,136.734 436.5,129C 476.231,125.838 501.231,143.338 511.5,181.5 Z"/></g>
</svg>
