<?xml version="1.0" encoding="UTF-8"?>
<!DOCTYPE svg PUBLIC "-//W3C//DTD SVG 1.1//EN" "http://www.w3.org/Graphics/SVG/1.1/DTD/svg11.dtd">
<svg xmlns="http://www.w3.org/2000/svg" version="1.1" width="512px" height="512px" style="shape-rendering:geometricPrecision; text-rendering:geometricPrecision; image-rendering:optimizeQuality; fill-rule:evenodd; clip-rule:evenodd" xmlns:xlink="http://www.w3.org/1999/xlink">
<g><path style="opacity:0.984" fill="#000000" d="M 511.5,105.5 C 511.5,111.5 511.5,117.5 511.5,123.5C 509.686,130.123 506.52,136.123 502,141.5C 399.5,244 297,346.5 194.5,449C 186.942,454.179 178.609,455.846 169.5,454C 165.385,452.777 161.718,450.777 158.5,448C 107.306,397.139 56.4723,345.972 6,294.5C 3.50565,289.853 1.33898,285.186 -0.5,280.5C -0.5,274.5 -0.5,268.5 -0.5,262.5C 1.22734,256.379 4.06067,250.712 8,245.5C 16.5298,236.636 25.3631,228.136 34.5,220C 50.4056,211.058 66.0723,211.391 81.5,221C 113.333,252.833 145.167,284.667 177,316.5C 260.833,232.667 344.667,148.833 428.5,65C 444.033,54.4633 460.033,53.7967 476.5,63C 488.409,72.9071 498.909,84.0737 508,96.5C 509.228,99.5984 510.394,102.598 511.5,105.5 Z"/></g>
</svg>
