<?xml version="1.0" encoding="UTF-8"?>
<!DOCTYPE svg PUBLIC "-//W3C//DTD SVG 1.1//EN" "http://www.w3.org/Graphics/SVG/1.1/DTD/svg11.dtd">
<svg xmlns="http://www.w3.org/2000/svg" version="1.1" width="523px" height="512px" style="shape-rendering:geometricPrecision; text-rendering:geometricPrecision; image-rendering:optimizeQuality; fill-rule:evenodd; clip-rule:evenodd" xmlns:xlink="http://www.w3.org/1999/xlink">
<g><path style="opacity:0.994" fill="#000000" d="M 250.5,-0.5 C 257.5,-0.5 264.5,-0.5 271.5,-0.5C 282.655,2.74916 292.321,8.5825 300.5,17C 371.613,86.7787 442.78,156.612 514,226.5C 517.57,231.536 520.404,236.869 522.5,242.5C 522.5,251.167 522.5,259.833 522.5,268.5C 512.361,292.578 494.027,304.244 467.5,303.5C 467.979,359.205 467.479,414.871 466,470.5C 458.327,492.571 443.161,506.238 420.5,511.5C 314.167,511.5 207.833,511.5 101.5,511.5C 77.0368,505.872 61.5368,490.872 55,466.5C 54.5,412.168 54.3333,357.834 54.5,303.5C 27.9649,304.233 9.63153,292.567 -0.5,268.5C -0.5,259.833 -0.5,251.167 -0.5,242.5C 1.51066,236.816 4.344,231.483 8,226.5C 79.5268,156.306 151.027,86.1394 222.5,16C 230.523,8.15954 239.856,2.65954 250.5,-0.5 Z"/></g>
</svg>
