<?xml version="1.0" encoding="UTF-8"?>
<!DOCTYPE svg PUBLIC "-//W3C//DTD SVG 1.1//EN" "http://www.w3.org/Graphics/SVG/1.1/DTD/svg11.dtd">
<svg xmlns="http://www.w3.org/2000/svg" version="1.1" width="523px" height="512px" style="shape-rendering:geometricPrecision; text-rendering:geometricPrecision; image-rendering:optimizeQuality; fill-rule:evenodd; clip-rule:evenodd" xmlns:xlink="http://www.w3.org/1999/xlink">
<g><path style="opacity:0.991" fill="#000000" d="M 250.5,-0.5 C 257.5,-0.5 264.5,-0.5 271.5,-0.5C 282.655,2.74916 292.321,8.5825 300.5,17C 371.613,86.7787 442.78,156.612 514,226.5C 517.57,231.536 520.404,236.869 522.5,242.5C 522.5,251.167 522.5,259.833 522.5,268.5C 512.361,292.578 494.027,304.244 467.5,303.5C 467.979,359.205 467.479,414.871 466,470.5C 458.327,492.571 443.161,506.238 420.5,511.5C 379.833,511.5 339.167,511.5 298.5,511.5C 286.305,489.613 273.972,467.78 261.5,446C 289,418.5 316.5,391 344,363.5C 344.667,361.833 344.667,360.167 344,358.5C 301.574,323.565 258.741,289.232 215.5,255.5C 209.996,257.187 207.496,260.854 208,266.5C 227.833,299.5 247.667,332.5 267.5,365.5C 237.815,391.686 207.981,417.686 178,443.5C 177.333,444.833 177.333,446.167 178,447.5C 188.924,469.018 200.091,490.351 211.5,511.5C 174.833,511.5 138.167,511.5 101.5,511.5C 77.0368,505.872 61.5368,490.872 55,466.5C 54.5,412.168 54.3333,357.834 54.5,303.5C 27.9649,304.233 9.63153,292.567 -0.5,268.5C -0.5,259.833 -0.5,251.167 -0.5,242.5C 1.51066,236.816 4.344,231.483 8,226.5C 79.5268,156.306 151.027,86.1394 222.5,16C 230.523,8.15954 239.856,2.65954 250.5,-0.5 Z"/></g>
<g><path style="opacity:0.004" fill="#000000" d="M 234.5,278.5 C 233.833,277.167 233.833,277.167 234.5,278.5 Z"/></g>
<g><path style="opacity:0.004" fill="#000000" d="M 234.5,278.5 C 235.833,279.167 235.833,279.167 234.5,278.5 Z"/></g>
<g><path style="opacity:0.004" fill="#000000" d="M 230.5,289.5 C 229.833,288.167 229.833,288.167 230.5,289.5 Z"/></g>
<g><path style="opacity:0.004" fill="#000000" d="M 230.5,289.5 C 231.525,289.897 231.692,290.563 231,291.5C 230.536,290.906 230.369,290.239 230.5,289.5 Z"/></g>
<g><path style="opacity:0.025" fill="#000000" d="M 334.5,359.5 C 336.76,360.238 336.927,361.238 335,362.5C 334.517,361.552 334.351,360.552 334.5,359.5 Z"/></g>
<g><path style="opacity:0.005" fill="#000000" d="M 269.5,372.5 C 270.239,372.369 270.906,372.536 271.5,373C 270.534,374.678 269.201,375.345 267.5,375C 268.381,374.292 269.047,373.458 269.5,372.5 Z"/></g>
<g><path style="opacity:0.004" fill="#000000" d="M 297.5,399.5 C 298.833,400.167 298.833,400.167 297.5,399.5 Z"/></g>
<g><path style="opacity:0.012" fill="#000000" d="M 297.5,400.5 C 296.833,401.167 296.833,401.167 297.5,400.5 Z"/></g>
<g><path style="opacity:0.016" fill="#000000" d="M 296.5,401.5 C 295.833,402.167 295.833,402.167 296.5,401.5 Z"/></g>
<g><path style="opacity:0.012" fill="#000000" d="M 295.5,402.5 C 294.833,403.167 294.833,403.167 295.5,402.5 Z"/></g>
<g><path style="opacity:0.012" fill="#000000" d="M 294.5,403.5 C 293.833,404.167 293.833,404.167 294.5,403.5 Z"/></g>
<g><path style="opacity:0.008" fill="#000000" d="M 293.5,404.5 C 292.833,405.167 292.833,405.167 293.5,404.5 Z"/></g>
<g><path style="opacity:0.004" fill="#000000" d="M 292.5,405.5 C 291.833,406.167 291.833,406.167 292.5,405.5 Z"/></g>
<g><path style="opacity:0.004" fill="#000000" d="M 291.5,406.5 C 290.833,407.167 290.833,407.167 291.5,406.5 Z"/></g>
<g><path style="opacity:0.005" fill="#000000" d="M 270.5,426.5 C 272.144,424.519 273.81,422.519 275.5,420.5C 276.451,419.674 277.451,419.508 278.5,420C 276.229,422.782 273.563,424.949 270.5,426.5 Z"/></g>
<g><path style="opacity:0.004" fill="#000000" d="M 270.5,426.5 C 269.833,427.167 269.833,427.167 270.5,426.5 Z"/></g>
<g><path style="opacity:0.004" fill="#000000" d="M 269.5,427.5 C 268.833,428.167 268.833,428.167 269.5,427.5 Z"/></g>
</svg>
