<?xml version="1.0" encoding="UTF-8"?>
<!DOCTYPE svg PUBLIC "-//W3C//DTD SVG 1.1//EN" "http://www.w3.org/Graphics/SVG/1.1/DTD/svg11.dtd">
<svg xmlns="http://www.w3.org/2000/svg" version="1.1" width="512px" height="512px" style="shape-rendering:geometricPrecision; text-rendering:geometricPrecision; image-rendering:optimizeQuality; fill-rule:evenodd; clip-rule:evenodd" xmlns:xlink="http://www.w3.org/1999/xlink">
<g><path style="opacity:0.992" fill="#000000" d="M 239.5,-0.5 C 250.167,-0.5 260.833,-0.5 271.5,-0.5C 329.419,8.90765 367.585,41.5743 386,97.5C 399.036,152.714 384.869,199.548 343.5,238C 302.129,270.39 256.462,278.056 206.5,261C 157.366,240.192 128.866,203.359 121,150.5C 116.719,92.562 138.886,48.062 187.5,17C 203.915,8.02863 221.248,2.1953 239.5,-0.5 Z"/></g>
<g><path style="opacity:0.989" fill="#000000" d="M 471.5,511.5 C 327.5,511.5 183.5,511.5 39.5,511.5C 34.965,509.149 31.7983,505.482 30,500.5C 28.9606,464.328 30.9606,428.328 36,392.5C 46.8113,348.02 74.3113,319.52 118.5,307C 139.793,301.371 161.459,298.704 183.5,299C 206.673,298.285 229.84,298.452 253,299.5C 294.621,296.096 336.121,297.262 377.5,303C 405.766,308.38 429.932,321.213 450,341.5C 466.145,360.473 475.145,382.473 477,407.5C 480.084,438.098 481.417,468.764 481,499.5C 479.474,504.928 476.307,508.928 471.5,511.5 Z"/></g>
</svg>
