<?xml version="1.0" encoding="UTF-8"?>
<!DOCTYPE svg PUBLIC "-//W3C//DTD SVG 1.1//EN" "http://www.w3.org/Graphics/SVG/1.1/DTD/svg11.dtd">
<svg xmlns="http://www.w3.org/2000/svg" version="1.1" width="512px" height="512px" style="shape-rendering:geometricPrecision; text-rendering:geometricPrecision; image-rendering:optimizeQuality; fill-rule:evenodd; clip-rule:evenodd" xmlns:xlink="http://www.w3.org/1999/xlink">
<g><path style="opacity:0.983" fill="#000000" d="M 178.5,-0.5 C 190.5,-0.5 202.5,-0.5 214.5,-0.5C 293.246,10.0839 347.746,52.0839 378,125.5C 399.203,188.627 391.369,247.794 354.5,303C 403.054,351.554 451.554,400.054 500,448.5C 510.635,468.853 507.802,487.02 491.5,503C 486.288,506.939 480.621,509.773 474.5,511.5C 468.5,511.5 462.5,511.5 456.5,511.5C 449.649,509.072 443.316,505.572 437.5,501C 389.972,453.139 342.139,405.639 294,358.5C 232.355,392.984 169.855,394.484 106.5,363C 40.6779,325.574 6.34461,268.74 3.5,192.5C 5.37979,121.546 35.7131,66.7128 94.5,28C 120.507,12.3871 148.507,2.88711 178.5,-0.5 Z M 189.5,68.5 C 245.24,68.7731 285.407,93.7731 310,143.5C 328.33,191.873 320.996,235.873 288,275.5C 251.676,312.042 208.51,323.542 158.5,310C 104.748,289.387 76.081,250.22 72.5,192.5C 76.2364,133.815 105.57,94.315 160.5,74C 170.16,71.3646 179.826,69.5313 189.5,68.5 Z"/></g>
</svg>
