<?xml version="1.0" encoding="UTF-8"?>
<!DOCTYPE svg PUBLIC "-//W3C//DTD SVG 1.1//EN" "http://www.w3.org/Graphics/SVG/1.1/DTD/svg11.dtd">
<svg xmlns="http://www.w3.org/2000/svg" version="1.1" width="512px" height="512px" style="shape-rendering:geometricPrecision; text-rendering:geometricPrecision; image-rendering:optimizeQuality; fill-rule:evenodd; clip-rule:evenodd" xmlns:xlink="http://www.w3.org/1999/xlink">
<g><path style="opacity:1" fill="#000000" d="M 190.5,-0.5 C 294.5,-0.5 398.5,-0.5 502.5,-0.5C 503.987,0.803551 505.654,1.97022 507.5,3C 508.697,5.01533 510.03,6.84866 511.5,8.5C 511.5,112.5 511.5,216.5 511.5,320.5C 509.685,324.479 506.685,327.312 502.5,329C 398.5,329.667 294.5,329.667 190.5,329C 186.333,327.5 183.5,324.667 182,320.5C 181.333,216.5 181.333,112.5 182,8.5C 183.688,4.31481 186.521,1.31481 190.5,-0.5 Z"/></g>
<g><path style="opacity:0.998" fill="#000000" d="M 99.5,90.5 C 116.833,90.5 134.167,90.5 151.5,90.5C 151.333,165.167 151.5,239.834 152,314.5C 154.833,341.333 169.667,356.167 196.5,359C 271.166,359.5 345.833,359.667 420.5,359.5C 420.667,376.837 420.5,394.17 420,411.5C 418.5,415.667 415.667,418.5 411.5,420C 307.5,420.667 203.5,420.667 99.5,420C 95.3333,418.5 92.5,415.667 91,411.5C 90.3333,307.5 90.3333,203.5 91,99.5C 92.6878,95.3148 95.5212,92.3148 99.5,90.5 Z"/></g>
<g><path style="opacity:0.998" fill="#000000" d="M 320.5,511.5 C 216.5,511.5 112.5,511.5 8.5,511.5C 7.01307,510.196 5.3464,509.03 3.5,508C 2.30342,505.985 0.970083,504.151 -0.5,502.5C -0.5,398.5 -0.5,294.5 -0.5,190.5C 1.31481,186.521 4.31481,183.688 8.5,182C 25.8301,181.5 43.1635,181.333 60.5,181.5C 60.3333,256.167 60.5,330.834 61,405.5C 63.8333,432.333 78.6667,447.167 105.5,450C 180.166,450.5 254.833,450.667 329.5,450.5C 329.667,467.837 329.5,485.17 329,502.5C 327.312,506.685 324.479,509.685 320.5,511.5 Z"/></g>
</svg>
