<?xml version="1.0" encoding="UTF-8"?>
<!DOCTYPE svg PUBLIC "-//W3C//DTD SVG 1.1//EN" "http://www.w3.org/Graphics/SVG/1.1/DTD/svg11.dtd">
<svg xmlns="http://www.w3.org/2000/svg" version="1.1" width="523px" height="512px" style="shape-rendering:geometricPrecision; text-rendering:geometricPrecision; image-rendering:optimizeQuality; fill-rule:evenodd; clip-rule:evenodd" xmlns:xlink="http://www.w3.org/1999/xlink">
<g><path style="opacity:0.987" fill="#000000" d="M 250.5,-0.5 C 257.5,-0.5 264.5,-0.5 271.5,-0.5C 282.655,2.74916 292.321,8.5825 300.5,17C 371.613,86.7787 442.78,156.612 514,226.5C 517.57,231.536 520.404,236.869 522.5,242.5C 522.5,251.167 522.5,259.833 522.5,268.5C 512.361,292.578 494.027,304.244 467.5,303.5C 467.979,359.205 467.479,414.871 466,470.5C 458.327,492.571 443.161,506.238 420.5,511.5C 314.167,511.5 207.833,511.5 101.5,511.5C 77.0368,505.872 61.5368,490.872 55,466.5C 54.5,412.168 54.3333,357.834 54.5,303.5C 27.9649,304.233 9.63153,292.567 -0.5,268.5C -0.5,259.833 -0.5,251.167 -0.5,242.5C 1.51066,236.816 4.344,231.483 8,226.5C 79.5268,156.306 151.027,86.1394 222.5,16C 230.523,8.15954 239.856,2.65954 250.5,-0.5 Z M 198.5,273.5 C 214.429,274.197 228.429,279.697 240.5,290C 248.066,297.566 255.566,305.066 263,312.5C 271.124,305.377 278.958,297.877 286.5,290C 312.273,268.685 338.606,268.019 365.5,288C 388.508,309.862 395.341,336.029 386,366.5C 381.522,377.462 375.522,387.462 368,396.5C 342.826,424.027 314.993,448.193 284.5,469C 279.659,471.921 274.659,474.588 269.5,477C 266.262,478.368 262.928,478.701 259.5,478C 246.532,472.186 234.532,464.852 223.5,456C 212.167,446.667 200.833,437.333 189.5,428C 176.97,415.804 164.804,403.304 153,390.5C 131.909,361.856 130.243,332.19 148,301.5C 160.949,284.947 177.782,275.613 198.5,273.5 Z"/></g>
<g><path style="opacity:0.005" fill="#000000" d="M 66.5,511.5 C 63.5,511.5 60.5,511.5 57.5,511.5C 57.2011,509.396 57.5344,507.396 58.5,505.5C 61.4921,507.171 64.1587,509.171 66.5,511.5 Z"/></g>
</svg>
