<?xml version="1.0" standalone="no"?>
<!DOCTYPE svg PUBLIC "-//W3C//DTD SVG 20010904//EN"
 "http://www.w3.org/TR/2001/REC-SVG-20010904/DTD/svg10.dtd">
<svg version="1.0" xmlns="http://www.w3.org/2000/svg"
 width="260.000000pt" height="340.000000pt" viewBox="0 0 260.000000 340.000000"
 preserveAspectRatio="xMidYMid meet">

<g transform="translate(0.000000,340.000000) scale(0.100000,-0.100000)"
fill="#000000" stroke="none">
<path d="M1145 3226 c-116 -19 -162 -33 -240 -74 -158 -83 -284 -268 -328
-483 -23 -112 -36 -256 -47 -539 -13 -332 -43 -497 -117 -644 -13 -27 -21 -52
-16 -57 15 -15 195 -69 282 -85 47 -9 137 -18 199 -21 l112 -6 0 -33 c0 -24
46 -126 150 -334 83 -165 152 -300 154 -300 3 0 71 133 152 296 101 203 147
305 146 327 -1 44 14 57 67 57 62 0 212 24 286 45 81 23 178 57 188 65 5 4 -1
38 -12 76 -79 266 -93 386 -110 919 -8 250 -11 276 -35 351 -63 196 -189 304
-354 304 -67 0 -70 1 -82 29 -15 38 -56 76 -101 95 -52 22 -199 28 -294 12z"/>
<path d="M1770 1205 c0 -2 33 -74 74 -159 41 -85 72 -157 69 -160 -3 -2 -78
-2 -168 1 l-164 6 -88 -174 c-48 -96 -110 -220 -138 -276 -27 -57 -53 -103
-57 -103 -3 0 -54 93 -112 208 -58 114 -119 235 -137 270 l-33 62 -173 0 c-99
0 -173 4 -173 9 0 5 25 62 57 125 31 64 54 119 51 122 -3 2 -23 -2 -44 -10
-22 -8 -120 -40 -219 -71 -227 -72 -377 -130 -414 -160 -15 -13 -43 -52 -62
-87 l-34 -63 -3 -373 -3 -372 197 0 c178 0 196 1 190 17 -4 9 -18 57 -32 107
-14 50 -32 102 -40 114 -21 32 -15 35 23 11 21 -13 38 -38 54 -77 12 -31 35
-83 51 -115 l28 -57 844 0 843 0 25 47 c13 27 31 68 38 92 8 24 33 64 58 90
25 27 38 36 32 22 -7 -12 -26 -74 -44 -137 l-33 -114 178 0 177 0 7 94 c10
135 0 613 -14 658 -18 57 -123 141 -256 204 -449 213 -555 261 -555 249z"/>
</g>
</svg>
