<?xml version="1.0" standalone="no"?>
<!DOCTYPE svg PUBLIC "-//W3C//DTD SVG 20010904//EN"
 "http://www.w3.org/TR/2001/REC-SVG-20010904/DTD/svg10.dtd">
<svg version="1.0" xmlns="http://www.w3.org/2000/svg"
 width="485.000000pt" height="246.000000pt" viewBox="0 0 485.000000 246.000000"
 preserveAspectRatio="xMidYMid meet">

<g transform="translate(0.000000,246.000000) scale(0.100000,-0.100000)"
fill="#000000" stroke="none">
<path d="M40 1250 l0 -1070 105 0 105 0 0 645 0 645 300 0 300 0 0 100 c0 55
-3 99 -7 99 -5 -1 -140 -1 -300 0 l-293 1 0 230 0 230 355 0 355 0 0 95 0 95
-460 0 -460 0 0 -1070z"/>
<path d="M2370 2113 c0 -115 -3 -393 -7 -619 l-6 -410 -44 44 c-67 67 -120 87
-228 87 -76 0 -99 -4 -146 -26 -97 -46 -162 -134 -188 -257 -17 -81 -14 -445
4 -515 44 -169 148 -262 307 -274 110 -8 174 13 246 82 31 30 58 55 60 55 2 0
2 -27 0 -60 l-3 -60 103 0 102 0 0 1080 0 1080 -100 0 -100 0 0 -207z m-93
-1108 c28 -17 48 -40 65 -72 22 -46 23 -58 23 -253 0 -190 -2 -208 -22 -245
-42 -79 -88 -105 -184 -105 -96 0 -153 31 -192 105 -19 35 -22 61 -25 207 -4
185 5 252 43 310 57 85 193 110 292 53z"/>
<path d="M2650 1575 l0 -735 100 0 100 0 2 497 3 497 173 -392 174 -392 73 0
72 0 174 401 174 402 3 -507 2 -506 100 0 100 0 0 735 0 736 -97 -3 -98 -3
-207 -465 c-114 -256 -211 -473 -215 -483 -6 -13 -64 107 -223 467 l-215 486
-97 0 -98 0 0 -735z"/>
<path d="M1084 2123 l-144 -148 3 -312 2 -313 33 -32 32 -33 599 0 c652 0 637
-1 667 57 11 22 14 92 14 357 l0 331 -22 5 c-13 3 -50 6 -83 7 l-60 3 -5 110
-5 110 -443 3 -444 2 -144 -147z m986 -332 c0 -231 3 -426 6 -435 6 -14 -44
-16 -518 -16 -437 0 -527 2 -544 14 -18 14 -19 29 -19 298 l0 283 124 3 c71 1
130 7 138 14 9 7 13 45 13 137 l0 126 400 -3 400 -2 0 -419z m-863 202 c-3 -2
-42 -3 -88 -1 l-84 3 85 88 85 89 3 -87 c2 -48 1 -89 -1 -92z m1033 -313 c0
-287 -1 -301 -20 -320 -24 -24 -49 -25 -76 -6 -18 14 -19 31 -22 320 l-3 306
61 0 60 0 0 -300z"/>
<path d="M1330 2055 l0 -115 339 0 338 0 5 48 c2 26 2 77 0 115 l-4 67 -339 0
-339 0 0 -115z m115 44 l30 -41 5 39 c4 30 9 38 25 38 18 0 20 -7 20 -80 0
-75 -1 -80 -22 -83 -16 -2 -29 7 -50 39 l-28 43 -5 -40 c-4 -31 -10 -40 -27
-42 -22 -3 -23 -1 -23 82 0 83 1 86 23 86 14 0 33 -15 52 -41z m225 22 c0 -12
-8 -21 -22 -23 -32 -5 -35 -28 -4 -28 16 0 26 -6 26 -15 0 -9 -9 -15 -25 -15
-16 0 -25 -6 -25 -15 0 -10 10 -15 31 -15 24 0 30 -4 27 -17 -2 -14 -15 -19
-56 -21 l-52 -3 0 79 c0 43 3 82 7 85 3 4 26 7 50 7 36 0 43 -3 43 -19z m128
-3 c3 -14 -3 -18 -23 -18 -32 0 -29 -23 3 -28 31 -5 28 -32 -4 -32 -34 0 -26
-24 10 -28 19 -2 26 -8 24 -20 -2 -13 -16 -18 -55 -20 l-51 -3 0 78 c0 43 2
82 5 86 3 4 24 7 46 5 30 -2 43 -8 45 -20z m152 7 c7 -8 15 -35 17 -59 5 -38
2 -48 -20 -70 -20 -20 -36 -26 -72 -26 l-45 0 0 78 c0 43 3 82 7 85 13 14 100
7 113 -8z"/>
<path d="M1874 2076 c-11 -29 0 -51 26 -51 21 0 25 5 25 30 0 24 -5 31 -23 33
-13 2 -24 -3 -28 -12z"/>
<path d="M1072 1872 c-9 -7 -12 -55 -10 -208 l3 -199 184 -3 c127 -2 188 1
197 9 22 18 20 371 -2 393 -13 13 -44 16 -187 16 -95 0 -178 -4 -185 -8z m328
-167 c0 -63 -3 -115 -7 -115 -4 0 -19 12 -34 26 -24 23 -26 30 -18 53 24 63
-21 131 -87 131 -66 0 -102 -62 -82 -140 5 -20 0 -30 -23 -48 l-29 -24 0 116
0 116 140 0 140 0 0 -115z m-115 -5 c0 -31 -3 -35 -27 -38 -22 -3 -29 2 -34
22 -10 40 2 58 33 54 25 -3 28 -7 28 -38z m50 -142 l29 -33 -51 -3 c-29 -2
-78 -2 -109 0 l-56 3 22 28 c46 58 115 60 165 5z"/>
<path d="M1603 1853 l-93 -4 0 -29 0 -30 224 0 c123 0 231 3 240 6 10 4 16 18
16 35 l0 29 -147 -2 c-82 -1 -190 -4 -240 -5z"/>
<path d="M1510 1741 c-5 -11 -7 -27 -4 -35 5 -14 36 -16 239 -16 249 0 265 3
250 50 -6 19 -13 20 -240 20 -221 0 -235 -1 -245 -19z"/>
<path d="M1511 1656 c-7 -8 -11 -23 -9 -33 3 -17 20 -18 248 -18 l245 0 3 23
c2 12 -3 24 -10 26 -7 3 -115 7 -239 11 -195 5 -227 4 -238 -9z"/>
<path d="M1572 1551 c-8 -4 -12 -19 -10 -32 l3 -24 165 0 165 0 3 24 c2 13 -2
28 -10 32 -7 5 -78 9 -158 9 -80 0 -151 -4 -158 -9z"/>
<path d="M1951 1541 c-7 -13 -6 -23 3 -36 19 -27 46 -12 46 25 0 23 -4 30 -20
30 -10 0 -24 -8 -29 -19z"/>
<path d="M4330 1910 c-114 -17 -183 -52 -253 -130 -99 -110 -139 -325 -106
-567 26 -193 145 -326 327 -364 80 -16 223 -7 294 20 65 25 177 96 185 118 5
14 -101 133 -119 133 -4 0 -26 -13 -50 -29 -87 -58 -187 -75 -281 -47 -95 29
-154 100 -164 201 l-6 55 327 0 326 0 0 93 c-1 217 -81 395 -214 472 -71 41
-174 58 -266 45z m155 -199 c22 -10 50 -29 62 -42 30 -33 60 -104 68 -161 l7
-48 -231 0 -231 0 0 29 c0 91 74 204 150 228 54 17 130 15 175 -6z"/>
<path d="M1020 1206 c-62 -16 -112 -48 -160 -103 l-40 -46 0 72 0 71 -100 0
-100 0 0 -520 0 -520 100 0 100 0 0 353 c1 424 4 438 104 489 44 23 152 27
201 8 42 -16 84 -58 106 -105 17 -37 19 -71 19 -392 l0 -353 105 0 105 0 0
324 c0 179 -5 360 -11 403 -13 97 -47 175 -102 231 -50 52 -93 76 -165 91 -66
14 -104 13 -162 -3z"/>
<path d="M320 690 l0 -520 100 0 100 0 0 520 0 520 -100 0 -100 0 0 -520z"/>
<path d="M3645 800 c-805 -5 -810 -5 -850 -27 -52 -28 -83 -62 -95 -104 -6
-19 -10 -152 -10 -296 0 -294 -4 -281 70 -243 38 20 59 20 879 20 564 0 857 4
890 11 65 14 115 68 130 141 17 78 14 316 -5 371 -22 65 -92 120 -164 128 -19
2 -399 2 -845 -1z m875 -72 c81 -42 85 -55 85 -253 0 -194 -4 -208 -76 -250
-33 -20 -52 -20 -889 -20 -690 0 -859 -3 -878 -13 l-23 -13 3 233 c4 288 -1
275 128 324 28 10 196 13 820 14 l786 0 44 -22z"/>
<path d="M2837 633 c-4 -3 -7 -19 -7 -35 0 -28 0 -28 65 -28 l65 0 0 35 0 35
-58 0 c-32 0 -62 -3 -65 -7z"/>
<path d="M3000 605 l0 -35 210 0 210 0 0 35 0 35 -210 0 -210 0 0 -35z"/>
<path d="M3527 614 c-4 -4 -7 -74 -7 -155 0 -121 3 -148 15 -153 35 -13 45 4
45 75 l0 69 50 0 49 0 3 -67 c3 -66 4 -68 31 -71 l27 -3 0 156 0 156 -27 -3
c-27 -3 -28 -6 -31 -65 l-3 -63 -49 0 -49 0 -3 63 c-3 54 -6 62 -23 65 -12 2
-24 0 -28 -4z"/>
<path d="M3802 463 l3 -158 95 0 c90 0 95 1 98 22 3 21 -1 22 -70 25 l-73 3 0
40 c0 39 1 40 40 45 32 4 40 9 40 25 0 16 -8 21 -42 23 -43 3 -43 3 -43 42 l0
39 73 3 c66 3 72 5 75 26 3 22 1 22 -98 22 l-101 0 3 -157z"/>
<path d="M4042 463 l3 -158 85 0 c80 0 85 1 88 22 3 20 -1 22 -59 25 l-61 3 1
115 c2 133 -2 150 -35 150 l-25 0 3 -157z"/>
<path d="M4260 465 c0 -130 3 -157 15 -161 30 -12 47 17 43 67 l-5 47 56 5
c72 8 101 37 101 103 0 34 -6 51 -25 69 -22 22 -32 25 -105 25 l-80 0 0 -155z
m138 93 c7 -7 12 -24 12 -38 0 -35 -17 -50 -59 -50 l-36 0 0 50 0 50 36 0 c19
0 40 -5 47 -12z"/>
<path d="M2834 516 c-3 -8 -4 -25 -2 -38 l3 -23 293 -3 292 -2 0 40 0 40 -290
0 c-243 0 -292 -2 -296 -14z"/>
<path d="M2840 386 c0 -30 4 -34 31 -40 17 -3 87 -6 155 -6 l124 0 0 34 c0 22
-6 36 -16 40 -9 3 -78 6 -155 6 l-139 0 0 -34z"/>
</g>
</svg>
