<?xml version="1.0" standalone="no"?>
<!DOCTYPE svg PUBLIC "-//W3C//DTD SVG 20010904//EN"
 "http://www.w3.org/TR/2001/REC-SVG-20010904/DTD/svg10.dtd">
<svg version="1.0" xmlns="http://www.w3.org/2000/svg"
 width="260.000000pt" height="340.000000pt" viewBox="0 0 260.000000 340.000000"
 preserveAspectRatio="xMidYMid meet">

<g transform="translate(0.000000,340.000000) scale(0.100000,-0.100000)"
fill="#000000" stroke="none">
<path d="M1255 3309 c-181 -26 -346 -116 -375 -204 -8 -24 -21 -36 -51 -48
-47 -19 -68 -59 -94 -182 -20 -94 -24 -324 -6 -399 12 -48 11 -50 -17 -76 -34
-30 -47 -75 -37 -122 18 -80 88 -175 146 -197 22 -8 30 -23 54 -108 44 -155
81 -250 117 -295 28 -36 33 -50 32 -95 0 -40 -5 -56 -19 -67 -17 -12 -13 -16
51 -53 38 -22 108 -61 156 -87 48 -26 90 -51 92 -55 3 -4 -27 -60 -65 -125
-66 -114 -84 -160 -38 -101 12 15 32 36 43 47 21 19 21 19 44 -9 17 -21 21
-36 17 -58 -26 -134 -67 -394 -79 -505 -20 -171 -31 -438 -22 -513 l8 -58 146
3 147 3 3 85 c7 178 -37 571 -98 871 l-31 152 23 24 22 23 48 -47 c26 -26 48
-44 48 -40 0 4 -34 58 -75 120 -41 61 -75 116 -75 122 0 6 75 48 168 94 95 48
161 86 152 89 -24 8 -29 23 -25 82 2 42 11 69 34 105 37 58 43 78 77 250 29
147 31 152 65 168 35 18 86 99 100 161 16 74 5 123 -37 162 -34 33 -34 33 -23
84 14 64 -3 348 -26 434 -17 64 -91 179 -159 248 -88 88 -281 139 -441 117z"/>
<path d="M875 1445 c-44 -32 -114 -88 -155 -125 -114 -102 -201 -139 -485
-204 -82 -19 -168 -41 -190 -49 l-40 -14 -3 -527 -2 -526 590 0 590 0 -36 57
c-98 152 -206 424 -239 603 -27 140 -31 329 -10 484 13 100 15 143 7 165 -9
26 -6 40 24 102 19 40 33 76 32 81 -2 5 -39 -16 -83 -47z"/>
<path d="M1757 1412 c30 -60 32 -71 22 -99 -8 -26 -7 -46 5 -95 52 -213 41
-450 -35 -721 -46 -162 -130 -359 -200 -464 l-21 -33 536 0 536 0 0 538 0 538
-107 13 c-216 26 -339 73 -435 165 -81 78 -294 226 -325 226 -5 0 6 -30 24
-68z"/>
</g>
</svg>
